<?xml version="1.0" encoding="UTF-8" standalone="no"?>
<!DOCTYPE svg PUBLIC "-//W3C//DTD SVG 20010904//EN" "http://www.w3.org/TR/2001/REC-SVG-20010904/DTD/svg10.dtd">

<svg xmlns="http://www.w3.org/2000/svg"
  width="1.12333in" height="1.12333in"
  viewBox="0 0 337 337">


  <path id="bg-big"
    fill="#efefef" stroke="black" stroke-width="1"
    d="M 156.00,9.21
        C 140.95,11.57 131.92,12.18 117.00,17.34
          74.99,31.88 41.85,61.50 23.31,102.00
          -3.14,159.75 7.58,228.84 50.17,276.00
          67.37,295.05 88.24,308.47 112.00,317.80
          125.83,323.23 147.16,327.82 162.00,328.00
          191.04,328.34 214.86,323.90 241.00,310.75
          257.99,302.21 274.08,290.11 286.83,276.00
          345.44,211.11 340.98,110.67 277.00,51.09
          263.07,38.12 245.65,27.46 228.00,20.40
          211.53,13.81 190.78,9.03 173.00,9.21
          173.00,9.21 156.00,9.21 156.00,9.21 Z" />


  <path id="keys"
    fill="black" stroke="black" stroke-width="1"
    d="M 153.00,4.21
           C 137.54,6.63 128.29,7.25 113.00,12.69
             71.07,27.61 35.93,59.13 17.86,100.00
             10.21,117.31 4.23,140.01 4.00,159.00
             3.83,173.82 3.94,186.29 6.61,201.00
             12.97,235.97 31.71,268.09 58.00,291.83
             72.83,305.23 89.49,315.05 108.00,322.40
             122.36,328.10 143.55,332.82 159.00,333.00
             192.51,333.39 217.97,329.97 248.00,313.69
             264.46,304.77 279.29,292.88 291.83,279.00
             315.64,252.64 332.58,213.83 333.00,178.00
             333.25,156.12 332.43,138.13 325.66,117.00
             316.76,89.23 301.30,65.93 280.00,46.09
             266.07,33.12 248.65,22.46 231.00,15.40
             214.53,8.81 193.78,4.03 176.00,4.21
             176.00,4.21 153.00,4.21 153.00,4.21 Z
           M 196.00,16.00
           C 196.00,16.00 191.00,46.00 191.00,46.00
             191.00,46.00 209.78,49.08 209.78,49.08
             212.61,48.38 213.50,44.39 214.34,42.00
             214.34,42.00 221.00,23.00 221.00,23.00
             221.00,23.00 239.00,30.76 239.00,30.76
             240.87,31.72 243.94,33.13 244.76,35.21
             245.65,37.49 243.91,40.07 242.84,42.00
             241.15,45.07 234.04,56.16 234.24,58.90
             234.46,61.78 238.83,63.91 241.00,65.44
             242.93,66.80 246.66,70.10 249.00,69.99
             251.57,69.88 254.01,66.79 255.57,65.00
             255.57,65.00 267.00,51.00 267.00,51.00
             272.64,52.92 274.89,55.85 279.00,60.00
             286.12,67.20 300.01,83.17 302.00,93.00
             302.00,93.00 278.00,106.00 278.00,106.00
             278.00,106.00 287.00,126.00 287.00,126.00
             287.00,126.00 315.00,117.00 315.00,117.00
             315.00,117.00 321.00,143.00 321.00,143.00
             321.00,143.00 293.00,147.00 293.00,147.00
             293.00,147.00 294.00,169.00 294.00,169.00
             294.00,169.00 323.00,169.00 323.00,169.00
             323.00,169.00 321.00,196.00 321.00,196.00
             321.00,196.00 292.00,191.00 292.00,191.00
             292.00,191.00 288.92,209.78 288.92,209.78
             289.57,212.40 292.78,213.21 295.00,214.00
             295.00,214.00 314.00,221.00 314.00,221.00
             309.58,233.73 303.14,245.97 295.41,257.00
             293.59,259.59 289.40,266.62 286.05,266.68
             284.01,266.71 280.93,263.79 279.39,262.49
             274.52,258.43 269.32,254.64 265.00,250.00
             262.79,253.09 252.97,262.71 252.68,264.58
             252.36,266.57 255.05,269.29 256.27,270.72
             258.79,273.69 264.86,279.91 266.29,283.00
             268.13,286.94 265.92,288.75 262.98,291.10
             258.13,294.98 250.87,300.15 245.00,302.00
             245.00,302.00 232.00,278.00 232.00,278.00
             232.00,278.00 213.00,287.00 213.00,287.00
             213.00,287.00 222.00,314.00 222.00,314.00
             222.00,314.00 209.00,317.63 209.00,317.63
             195.34,321.08 182.10,323.00 168.00,323.00
             168.00,323.00 168.00,294.00 168.00,294.00
             168.00,294.00 147.00,293.00 147.00,293.00
             147.00,293.00 142.00,321.00 142.00,321.00
             142.00,321.00 115.00,313.00 115.00,313.00
             115.00,313.00 125.00,287.00 125.00,287.00
             125.00,287.00 106.00,278.00 106.00,278.00
             106.00,278.00 97.15,294.00 97.15,294.00
             96.01,295.98 93.97,299.91 91.79,300.76
             88.08,302.19 77.06,293.55 74.02,291.10
             72.43,289.82 70.33,288.23 70.33,285.96
             70.34,283.72 72.88,281.06 74.27,279.42
             77.89,275.17 83.11,268.43 87.00,265.00
             87.00,265.00 73.00,250.00 73.00,250.00
             73.00,250.00 57.95,263.00 57.95,263.00
             56.25,264.44 53.35,267.31 50.95,266.99
             47.91,266.58 44.69,261.38 43.00,259.00
             37.23,250.87 32.60,242.97 28.26,234.00
             26.99,231.39 23.65,225.16 25.12,222.41
             26.29,220.25 30.77,218.94 33.00,218.17
             33.00,218.17 51.00,212.00 51.00,212.00
             48.24,205.69 46.56,198.86 46.00,192.00
             46.00,192.00 17.00,198.00 17.00,198.00
             14.98,189.81 14.00,177.49 14.00,169.00
             14.00,169.00 44.00,169.00 44.00,169.00
             44.00,169.00 45.00,148.00 45.00,148.00
             45.00,148.00 25.00,144.92 25.00,144.92
             22.96,144.57 18.30,144.18 17.11,142.41
             15.65,140.22 17.98,132.59 18.63,130.00
             20.96,120.63 24.05,111.70 28.26,103.00
             29.26,100.94 32.05,94.89 33.63,93.65
             36.32,91.56 39.59,94.01 42.00,95.40
             44.55,96.87 56.73,104.27 58.67,104.36
             61.42,104.48 63.99,99.07 65.44,97.00
             66.78,95.09 70.04,91.39 70.03,89.09
             70.03,86.60 66.68,84.25 64.95,82.77
             64.95,82.77 50.00,70.00 50.00,70.00
             54.46,62.37 62.19,55.59 69.00,50.00
             73.59,53.54 78.20,59.49 82.00,64.04
             83.43,65.74 85.91,69.18 88.04,69.82
             90.96,70.70 94.73,67.04 97.00,65.44
             98.83,64.15 102.90,61.97 103.48,59.79
             104.03,57.73 102.13,54.75 101.15,53.00
             101.15,53.00 91.00,36.00 91.00,36.00
             96.09,30.22 109.47,25.03 117.00,23.00
             117.00,23.00 126.00,51.00 126.00,51.00
             132.57,48.12 139.82,46.33 147.00,46.00
             147.00,46.00 141.00,17.00 141.00,17.00
             150.33,14.14 164.16,13.89 174.00,14.00
             174.00,14.00 196.00,16.00 196.00,16.00 Z" />
  <path id="bg-small"
    fill="yellow" stroke="black" stroke-width="1"
    d="M 160.00,54.42
           C 152.59,55.50 145.24,56.38 138.00,58.43
             105.14,67.70 77.65,91.80 63.86,123.00
             36.50,184.90 68.96,256.39 133.00,278.00
             141.81,280.97 156.75,283.89 166.00,284.00
             183.80,284.20 201.93,280.52 218.00,272.74
             255.97,254.36 283.50,214.78 284.00,172.00
             284.65,115.84 246.34,67.47 191.00,56.40
             181.07,54.41 170.09,53.20 160.00,54.42 Z" />


  <path id="eyes"
    fill="black" stroke="black" stroke-width="1"
    d="M 137.00,65.00
C 137.00,65.00 138.00,76.00 138.00,76.00
138.00,76.00 129.00,70.00 129.00,70.00
129.49,76.22 131.57,77.10 131.35,80.00
131.20,81.93 128.43,86.51 127.55,89.00
124.87,96.54 125.26,106.85 131.21,112.92
137.02,118.59 144.76,117.56 150.99,112.92
159.03,107.25 165.78,93.98 163.07,84.00
161.66,78.78 158.42,74.77 153.00,73.42
149.99,72.67 146.78,73.46 144.10,71.98
141.39,70.47 140.22,67.67 139.00,65.00
139.00,65.00 137.00,65.00 137.00,65.00 Z
M 150.00,110.00
C 153.70,99.72 156.09,99.66 154.00,88.00
152.66,90.96 151.38,95.27 147.96,96.34
144.80,97.34 142.56,95.05 142.43,91.98
142.36,90.17 143.51,86.88 144.00,85.00
132.88,90.97 130.92,98.40 133.00,110.00
122.83,103.92 129.03,82.09 142.00,77.14
148.16,74.79 156.42,76.34 159.11,83.04
159.94,85.10 159.99,87.79 159.99,90.00
159.99,93.99 159.72,96.29 158.12,100.00
156.06,104.79 154.17,106.94 150.00,110.00 Z
M 240.00,83.00
C 238.72,84.48 238.06,85.68 235.96,86.20
233.93,86.69 231.17,85.45 229.00,85.22
223.56,84.64 219.30,87.13 216.92,92.02
212.12,101.87 218.77,118.71 226.09,125.90
230.70,130.41 238.24,133.33 243.79,128.57
249.62,123.57 250.33,113.97 248.79,107.00
248.79,107.00 246.37,98.00 246.37,98.00
246.34,96.23 247.54,92.95 248.00,91.00
248.00,91.00 242.00,93.00 242.00,93.00
242.00,93.00 242.00,83.00 242.00,83.00
242.00,83.00 240.00,83.00 240.00,83.00 Z
M 243.00,125.00
C 243.00,125.00 243.82,117.00 243.82,117.00
243.73,109.17 238.93,102.59 233.00,98.00
233.86,99.86 234.46,100.89 234.78,103.00
235.47,107.58 232.87,111.79 228.57,107.55
226.36,105.38 226.21,102.87 226.00,100.00
221.18,106.83 223.38,110.36 224.00,118.00
217.17,111.08 215.95,89.21 227.00,88.40
242.23,87.28 253.65,114.86 243.00,125.00 Z
M 139.00,99.00
C 139.80,103.80 140.22,104.85 144.00,108.00
137.91,111.49 134.68,104.93 139.00,99.00 Z
M 137.00,100.00
C 137.00,100.00 137.00,101.00 137.00,101.00
137.00,101.00 136.00,100.00 136.00,100.00
136.00,100.00 137.00,100.00 137.00,100.00 Z
M 148.00,103.00
C 147.07,108.26 144.65,108.66 142.00,104.00
142.00,104.00 148.00,103.00 148.00,103.00 Z
M 150.00,110.00
C 150.00,110.00 150.00,111.00 150.00,111.00
150.00,111.00 149.00,110.00 149.00,110.00
149.00,110.00 150.00,110.00 150.00,110.00 Z
M 232.00,116.00
C 232.00,116.00 232.00,120.00 232.00,120.00
232.00,120.00 229.00,116.00 229.00,116.00
229.00,116.00 232.00,116.00 232.00,116.00 Z
M 238.00,116.00
C 238.93,120.52 238.44,121.58 234.00,123.00
234.00,123.00 238.00,116.00 238.00,116.00 Z" />

  <path id="zui"
    fill="red" stroke="none" stroke-width="1"
    d="M 173.00,141.31
C 154.41,147.32 155.40,168.65 140.00,178.00
129.47,184.39 120.24,179.33 110.00,177.34
107.30,176.86 102.88,177.00 100.00,177.34
97.35,177.00 94.57,176.89 92.00,177.34
78.78,181.46 74.95,197.99 77.52,210.00
79.21,217.94 84.30,224.91 89.44,231.00
96.18,238.99 101.87,242.25 110.00,248.15
136.49,267.38 163.08,278.33 196.00,270.11
218.41,264.51 249.94,251.18 261.22,230.00
265.95,221.11 270.99,207.11 263.58,198.09
256.82,189.86 250.53,192.59 242.00,192.96
233.99,193.31 226.58,192.49 220.00,187.47
202.27,173.94 206.59,151.91 190.00,143.31
187.58,142.06 181.81,141.25 179.00,141.31
176.61,140.96 175.32,141.15 173.00,141.31 Z" />

</svg>